<svg width="30" height="30" viewBox="0 0 30 30" fill="none" xmlns="http://www.w3.org/2000/svg">
<path d="M20.625 2.8125V4.6875H27.1875C27.4361 4.6875 27.6746 4.78627 27.8504 4.96209C28.0262 5.1379 28.125 5.37636 28.125 5.625C28.125 5.87364 28.0262 6.1121 27.8504 6.28791C27.6746 6.46373 27.4361 6.5625 27.1875 6.5625H26.1787L24.5794 26.55C24.504 27.4897 24.0773 28.3666 23.3845 29.0059C22.6916 29.6453 21.7834 30.0002 20.8406 30H9.15938C8.21661 30.0002 7.30837 29.6453 6.61551 29.0059C5.92266 28.3666 5.49605 27.4897 5.42063 26.55L3.82125 6.5625H2.8125C2.56386 6.5625 2.3254 6.46373 2.14959 6.28791C1.97377 6.1121 1.875 5.87364 1.875 5.625C1.875 5.37636 1.97377 5.1379 2.14959 4.96209C2.3254 4.78627 2.56386 4.6875 2.8125 4.6875H9.375V2.8125C9.375 2.06658 9.67132 1.35121 10.1988 0.823762C10.7262 0.296316 11.4416 0 12.1875 0L17.8125 0C18.5584 0 19.2738 0.296316 19.8012 0.823762C20.3287 1.35121 20.625 2.06658 20.625 2.8125ZM11.25 2.8125V4.6875H18.75V2.8125C18.75 2.56386 18.6512 2.3254 18.4754 2.14959C18.2996 1.97377 18.0611 1.875 17.8125 1.875H12.1875C11.9389 1.875 11.7004 1.97377 11.5246 2.14959C11.3488 2.3254 11.25 2.56386 11.25 2.8125V2.8125ZM8.4375 9.42937L9.375 25.3669C9.38 25.4915 9.40981 25.6138 9.46267 25.7267C9.51553 25.8396 9.59039 25.9409 9.68286 26.0245C9.77533 26.1082 9.88355 26.1725 10.0012 26.2138C10.1188 26.2551 10.2435 26.2725 10.368 26.2651C10.4925 26.2576 10.6142 26.2253 10.726 26.1702C10.8379 26.1151 10.9376 26.0383 11.0194 25.9442C11.1012 25.8501 11.1634 25.7406 11.2023 25.6221C11.2413 25.5037 11.2562 25.3787 11.2463 25.2544L10.3088 9.31687C10.3037 9.19229 10.2739 9.06996 10.2211 8.95703C10.1682 8.84411 10.0934 8.74287 10.0009 8.65923C9.90842 8.57559 9.8002 8.51123 9.68255 8.46993C9.56491 8.42863 9.4402 8.41121 9.31574 8.41869C9.19129 8.42617 9.06957 8.45841 8.95772 8.51351C8.84587 8.56861 8.74613 8.64546 8.66435 8.73958C8.58257 8.83369 8.52038 8.94318 8.48143 9.06162C8.44248 9.18007 8.42754 9.30509 8.4375 9.42937V9.42937ZM20.6812 8.43937C20.4331 8.42503 20.1895 8.50981 20.0038 8.67506C19.8182 8.84031 19.7057 9.07251 19.6912 9.32063L18.7537 25.2581C18.7457 25.5026 18.8335 25.7404 18.9984 25.9211C19.1633 26.1017 19.3922 26.2107 19.6364 26.2249C19.8805 26.2391 20.1205 26.1573 20.3052 25.997C20.4899 25.8367 20.6047 25.6106 20.625 25.3669L21.5625 9.42937C21.5768 9.18125 21.4921 8.93759 21.3268 8.75194C21.1616 8.5663 20.9294 8.45387 20.6812 8.43937V8.43937ZM15 8.4375C14.7514 8.4375 14.5129 8.53627 14.3371 8.71209C14.1613 8.8879 14.0625 9.12636 14.0625 9.375V25.3125C14.0625 25.5611 14.1613 25.7996 14.3371 25.9754C14.5129 26.1512 14.7514 26.25 15 26.25C15.2486 26.25 15.4871 26.1512 15.6629 25.9754C15.8387 25.7996 15.9375 25.5611 15.9375 25.3125V9.375C15.9375 9.12636 15.8387 8.8879 15.6629 8.71209C15.4871 8.53627 15.2486 8.4375 15 8.4375Z" fill="#FF914D"/>
</svg>
