<svg width="30" height="30" viewBox="0 0 30 30" fill="none" xmlns="http://www.w3.org/2000/svg">
<g clip-path="url(#clip0_98_11)">
<path d="M24.1013 0.273755C23.9254 0.0980007 23.687 -0.000732422 23.4384 -0.000732422C23.1899 -0.000732422 22.9514 0.0980007 22.7756 0.273755L19.6875 3.36188L26.6381 10.3125L29.7263 7.22625C29.8136 7.13917 29.8828 7.03571 29.9301 6.92182C29.9774 6.80792 30.0017 6.68582 30.0017 6.5625C30.0017 6.43919 29.9774 6.31709 29.9301 6.20319C29.8828 6.08929 29.8136 5.98584 29.7263 5.89875L24.1013 0.273755V0.273755ZM25.3125 11.6381L18.3619 4.6875L6.17438 16.875H6.5625C6.81114 16.875 7.0496 16.9738 7.22542 17.1496C7.40123 17.3254 7.5 17.5639 7.5 17.8125V18.75H8.4375C8.68614 18.75 8.9246 18.8488 9.10042 19.0246C9.27623 19.2004 9.375 19.4389 9.375 19.6875V20.625H10.3125C10.5611 20.625 10.7996 20.7238 10.9754 20.8996C11.1512 21.0754 11.25 21.3139 11.25 21.5625V22.5H12.1875C12.4361 22.5 12.6746 22.5988 12.8504 22.7746C13.0262 22.9504 13.125 23.1889 13.125 23.4375V23.8256L25.3125 11.6381V11.6381ZM11.31 25.6406C11.2705 25.5357 11.2502 25.4246 11.25 25.3125V24.375H10.3125C10.0639 24.375 9.82541 24.2762 9.64959 24.1004C9.47378 23.9246 9.375 23.6861 9.375 23.4375V22.5H8.4375C8.18886 22.5 7.95041 22.4012 7.77459 22.2254C7.59878 22.0496 7.5 21.8111 7.5 21.5625V20.625H6.5625C6.31386 20.625 6.07541 20.5262 5.89959 20.3504C5.72378 20.1746 5.625 19.9361 5.625 19.6875V18.75H4.6875C4.57542 18.7498 4.46428 18.7295 4.35938 18.69L4.02375 19.0238C3.93441 19.1137 3.86424 19.2209 3.8175 19.3388L0.0675026 28.7138C-0.000692403 28.8841 -0.0173865 29.0708 0.01949 29.2505C0.0563665 29.4303 0.145192 29.5953 0.274954 29.7251C0.404716 29.8548 0.569709 29.9436 0.749477 29.9805C0.929245 30.0174 1.11588 30.0007 1.28625 29.9325L10.6613 26.1825C10.7791 26.1358 10.8863 26.0656 10.9763 25.9763L11.31 25.6425V25.6406Z" fill="#5A5A5A"/>
</g>
<defs>
<clipPath id="clip0_98_11">
<rect width="30" height="30" fill="white"/>
</clipPath>
</defs>
</svg>
