<svg width="329" height="55" viewBox="0 0 329 55" fill="none" xmlns="http://www.w3.org/2000/svg">
<g clip-path="url(#clip0_88_47)">
<mask id="mask0_88_47" style="mask-type:luminance" maskUnits="userSpaceOnUse" x="188" y="0" width="33" height="55">
<path d="M188.302 0.994873H220.302V54.9949H188.302V0.994873Z" fill="white"/>
</mask>
<g mask="url(#mask0_88_47)">
<path fill-rule="evenodd" clip-rule="evenodd" d="M217.839 0.994873C219.198 0.994873 220.302 2.09383 220.302 3.448V52.5365C220.302 53.8959 219.198 54.9949 217.839 54.9949H210.453C209.094 54.9949 207.995 53.8959 207.995 52.5365C207.995 50.5053 206.339 48.8542 204.302 48.8542C202.26 48.8542 200.609 50.5053 200.609 52.5365C200.609 53.8959 199.505 54.9949 198.146 54.9949H190.766C189.406 54.9949 188.302 53.8959 188.302 52.5365V3.448C188.302 2.09383 189.406 0.994873 190.766 0.994873H198.146C199.505 0.994873 200.609 2.09383 200.609 3.448C200.609 5.47925 202.26 7.13029 204.302 7.13029C206.339 7.13029 207.995 5.47925 207.995 3.448C207.995 2.09383 209.094 0.994873 210.453 0.994873H217.839ZM215.38 5.90112H212.557C211.5 9.448 208.203 12.0365 204.302 12.0365C200.401 12.0365 197.104 9.448 196.042 5.90112H193.224V50.0834H196.042C197.104 46.5365 200.401 43.948 204.302 43.948C208.203 43.948 211.5 46.5365 212.557 50.0834H215.38V5.90112Z" fill="#FF914D"/>
</g>
<path fill-rule="evenodd" clip-rule="evenodd" d="M217.839 37.8125V42.7188H211.688V37.8125H217.839Z" fill="#FF914D"/>
<path fill-rule="evenodd" clip-rule="evenodd" d="M206.76 37.8125V42.7188H200.609V37.8125H206.76Z" fill="#FF914D"/>
<path fill-rule="evenodd" clip-rule="evenodd" d="M195.688 37.8125V42.7188H190.766V37.8125H195.688Z" fill="#FF914D"/>
<path fill-rule="evenodd" clip-rule="evenodd" d="M214.146 24.3124C214.146 25.1093 213.76 25.8541 213.109 26.3124L210.047 28.4739L208.932 32.0416C208.698 32.802 208.104 33.401 207.344 33.651C206.583 33.8958 205.75 33.7603 205.115 33.2812L202.104 31.0468L198.359 31.0937C197.557 31.1041 196.807 30.7239 196.333 30.0833C195.865 29.4374 195.74 28.6041 195.995 27.8541L197.198 24.3124L195.995 20.7708C195.74 20.0155 195.865 19.1822 196.333 18.5416C196.807 17.8958 197.557 17.5208 198.359 17.526L202.104 17.5728L205.115 15.3385C205.75 14.8645 206.583 14.7291 207.344 14.9739C208.104 15.2187 208.698 15.8176 208.932 16.578L210.047 20.1458L213.109 22.3072C213.76 22.7655 214.146 23.5155 214.146 24.3124ZM207.427 24.3124L206.521 23.6718C206.083 23.3645 205.755 22.9166 205.594 22.401L205.266 21.3489L204.38 22.0051C203.948 22.328 203.422 22.4999 202.88 22.4947L201.776 22.4791L202.13 23.526C202.302 24.0364 202.302 24.5885 202.13 25.0989L201.776 26.1405L202.88 26.1301C203.422 26.1197 203.948 26.2916 204.38 26.6145L205.266 27.276L205.594 26.2187C205.755 25.7083 206.083 25.2603 206.521 24.9478L207.427 24.3124Z" fill="#FF914D"/>
<path d="M251.553 21.9716V18.2112H225.433V43.0081H251.553V39.2476H229.646V32.7997H248.99V29.0393H229.646V21.9716H251.553Z" fill="#FF914D"/>
<path d="M288.528 25.4456V24.9872C288.528 20.5237 285.633 18.2112 280.799 18.2112H259.185V43.0081H263.69V33.4195H279.065C283.237 33.4195 283.237 35.982 283.237 37.9247V40.6956C283.237 41.4351 283.278 42.2633 283.403 43.0081H288.237C288.112 42.2633 288.028 41.4351 288.028 40.5289V37.5966C288.028 35.0341 286.997 32.7997 284.601 31.4768C286.956 30.732 288.528 29.0393 288.528 25.4456ZM263.69 28.9976V22.3466H280.799C283.607 22.3466 284.226 23.7893 284.226 24.9872V25.4456C284.226 27.3883 283.153 28.9976 280.799 28.9976H263.69Z" fill="#FF914D"/>
<path d="M311.696 43.4196C324.675 43.4196 328.477 37.2217 328.477 31.3519V29.5342C328.477 23.3363 324.258 17.6748 311.696 17.6748C298.925 17.6748 294.92 23.5863 294.92 29.7008V31.5186C294.92 37.5133 298.925 43.4196 311.696 43.4196ZM311.696 39.2894C302.727 39.2894 299.216 35.8988 299.216 31.5186V29.7008C299.216 25.1956 302.727 21.805 311.696 21.805C320.378 21.805 324.18 25.529 324.18 30.1123V31.93C324.18 36.1071 320.914 39.2894 311.696 39.2894Z" fill="#FF914D"/>
<path d="M28.4664 18.2864H0.179932V22.328H12.2216V43.026H16.4299V22.328H28.4664V18.2864Z" fill="black"/>
<path d="M33.4142 43.026H37.6173V18.2864H33.4142V43.026Z" fill="black"/>
<path d="M62.7714 43.4375C73.9433 43.4375 78.4381 38.9844 79.261 33.75H74.6881C73.7766 36.9635 70.3964 39.3125 62.7714 39.3125C53.8235 39.3125 50.3183 35.9323 50.3183 31.026V30.1615C50.3183 25.2552 53.8235 21.875 62.7714 21.875C69.6152 21.875 74.2349 24.3073 74.7297 27.1927H79.3027C78.9329 22.2448 73.162 17.75 62.7714 17.75C50.0266 17.75 46.0266 23.6458 46.0266 30.1615V31.026C46.0266 37.5417 50.0266 43.4375 62.7714 43.4375Z" fill="black"/>
<path d="M116.618 18.2864H110.639L98.7222 28.5103H92.0399V18.2864H87.8368V43.026H92.0399V32.6353H98.0191L110.144 43.026H116.326L102.556 30.6562L116.618 18.2864Z" fill="black"/>
<path d="M148.32 22.0364V18.2864H122.263V43.026H148.32V39.276H126.466V32.8437H145.763V29.0885H126.466V22.0364H148.32Z" fill="black"/>
<path d="M178.994 18.2864H150.708V22.328H162.75V43.026H166.958V22.328H178.994V18.2864Z" fill="black"/>
</g>
<defs>
<clipPath id="clip0_88_47">
<rect width="329" height="55" fill="white"/>
</clipPath>
</defs>
</svg>
