<svg width="310" height="158" viewBox="0 0 310 158" fill="none" xmlns="http://www.w3.org/2000/svg">
<g clip-path="url(#clip0_88_2)">
<mask id="mask0_88_2" style="mask-type:luminance" maskUnits="userSpaceOnUse" x="0" y="54" width="62" height="104">
<path d="M0.786499 54.7239H61.4011V157.302H0.786499V54.7239Z" fill="white"/>
</mask>
<g mask="url(#mask0_88_2)">
<path fill-rule="evenodd" clip-rule="evenodd" d="M56.7397 54.7239C59.3126 54.7239 61.4011 56.8124 61.4011 59.3853V152.635C61.4011 155.213 59.3126 157.302 56.7397 157.302H42.7501C40.1772 157.302 38.0886 155.213 38.0886 152.635C38.0886 148.776 34.9584 145.641 31.0938 145.641C27.2345 145.641 24.1042 148.776 24.1042 152.635C24.1042 155.213 22.0157 157.302 19.4376 157.302H5.45321C2.88029 157.302 0.791748 155.213 0.791748 152.635V59.3853C0.791748 56.8124 2.88029 54.7239 5.45321 54.7239H19.4376C22.0157 54.7239 24.1042 56.8124 24.1042 59.3853C24.1042 63.2499 27.2345 66.3801 31.0938 66.3801C34.9584 66.3801 38.0886 63.2499 38.0886 59.3853C38.0886 56.8124 40.1772 54.7239 42.7501 54.7239H56.7397ZM52.0782 64.0468H46.7397C44.7345 70.7864 38.4897 75.703 31.0938 75.703C23.7032 75.703 17.4584 70.7864 15.4532 64.0468H10.1147V147.974H15.4532C17.4584 141.234 23.7032 136.318 31.0938 136.318C38.4897 136.318 44.7345 141.234 46.7397 147.974H52.0782V64.0468Z" fill="#FF914D"/>
</g>
<path fill-rule="evenodd" clip-rule="evenodd" d="M56.7396 124.661V133.984H45.0834V124.661H56.7396Z" fill="#FF914D"/>
<path fill-rule="evenodd" clip-rule="evenodd" d="M35.7604 124.661V133.984H24.1041V124.661H35.7604Z" fill="#FF914D"/>
<path fill-rule="evenodd" clip-rule="evenodd" d="M14.776 124.661V133.984H5.45312V124.661H14.776Z" fill="#FF914D"/>
<path d="M132.69 99.0169V91.0898H77.6428V143.35H132.69V135.423H86.523V121.835H127.289V113.913H86.523V99.0169H132.69Z" fill="#FF914D"/>
<path d="M210.616 106.335V105.376C210.616 95.9701 204.517 91.0898 194.33 91.0898H148.778V143.35H158.267V123.142H190.674C199.47 123.142 199.47 128.543 199.47 132.637V138.475C199.47 140.043 199.554 141.783 199.814 143.35H210.007C209.746 141.783 209.569 140.043 209.569 138.126V131.939C209.569 126.538 207.392 121.835 202.34 119.048C207.309 117.48 210.616 113.913 210.616 106.335ZM158.267 113.824V99.7982H194.33C200.252 99.7982 201.559 102.85 201.559 105.376V106.335C201.559 110.428 199.293 113.824 194.33 113.824H158.267Z" fill="#FF914D"/>
<path d="M259.449 144.22C286.803 144.22 294.814 131.157 294.814 118.788V114.954C294.814 101.892 285.928 89.9595 259.449 89.9595C232.538 89.9595 224.09 102.413 224.09 115.303V119.137C224.09 131.767 232.538 144.22 259.449 144.22ZM259.449 135.512C240.553 135.512 233.147 128.371 233.147 119.137V115.303C233.147 105.808 240.553 98.6678 259.449 98.6678C277.741 98.6678 285.756 106.506 285.756 116.173V120.006C285.756 128.803 278.876 135.512 259.449 135.512Z" fill="#FF914D"/>
<path d="M49.7893 1.15625H0.992432V8.13021H21.7633V43.8385H29.0185V8.13021H49.7893V1.15625Z" fill="black"/>
<path d="M58.324 43.8385H65.5792V1.15625H58.324V43.8385Z" fill="black"/>
<path d="M108.968 44.5521C128.244 44.5521 136 36.8698 137.421 27.8333H129.526C127.958 33.3802 122.125 37.4375 108.968 37.4375C93.5308 37.4375 87.484 31.6042 87.484 23.1406V21.6458C87.484 13.1771 93.5308 7.34375 108.968 7.34375C120.776 7.34375 128.744 11.5417 129.599 16.5208H137.494C136.854 7.98437 126.895 0.234375 108.968 0.234375C86.984 0.234375 80.0881 10.4062 80.0881 21.6458V23.1406C80.0881 34.375 86.984 44.5521 108.968 44.5521Z" fill="black"/>
<path d="M201.862 1.15625H191.545L170.987 18.7969H159.467V1.15625H152.211V43.8385H159.467V25.9115H169.779L190.696 43.8385H201.362L177.602 22.5L201.862 1.15625Z" fill="black"/>
<path d="M256.555 7.63021V1.15625H211.602V43.8385H256.555V37.3646H218.858V26.2656H252.149V19.7969H218.858V7.63021H256.555Z" fill="black"/>
<path d="M309.473 1.15625H260.676V8.13021H281.447V43.8385H288.702V8.13021H309.473V1.15625Z" fill="black"/>
</g>
<defs>
<clipPath id="clip0_88_2">
<rect width="310" height="158" fill="white"/>
</clipPath>
</defs>
</svg>
