<svg xmlns="http://www.w3.org/2000/svg" xmlns:xlink="http://www.w3.org/1999/xlink" width="500" zoomAndPan="magnify" viewBox="0 0 375 374.999991" height="500" preserveAspectRatio="xMidYMid meet" version="1.0"><defs><g/><clipPath id="a49bedf792"><path d="M 197.476562 167.246094 L 221.476562 167.246094 L 221.476562 207.746094 L 197.476562 207.746094 Z M 197.476562 167.246094 " clip-rule="nonzero"/></clipPath></defs><g clip-path="url(#a49bedf792)"><path fill="#ff914d" d="M 219.628906 167.246094 C 220.648438 167.246094 221.476562 168.070312 221.476562 169.085938 L 221.476562 205.902344 C 221.476562 206.921875 220.648438 207.746094 219.628906 207.746094 L 214.089844 207.746094 C 213.070312 207.746094 212.246094 206.921875 212.246094 205.902344 C 212.246094 204.378906 211.003906 203.140625 209.476562 203.140625 C 207.945312 203.140625 206.707031 204.378906 206.707031 205.902344 C 206.707031 206.921875 205.878906 207.746094 204.859375 207.746094 L 199.324219 207.746094 C 198.304688 207.746094 197.476562 206.921875 197.476562 205.902344 L 197.476562 169.085938 C 197.476562 168.070312 198.304688 167.246094 199.324219 167.246094 L 204.859375 167.246094 C 205.878906 167.246094 206.707031 168.070312 206.707031 169.085938 C 206.707031 170.609375 207.945312 171.847656 209.476562 171.847656 C 211.003906 171.847656 212.246094 170.609375 212.246094 169.085938 C 212.246094 168.070312 213.070312 167.246094 214.089844 167.246094 Z M 217.785156 170.925781 L 215.667969 170.925781 C 214.875 173.585938 212.402344 175.527344 209.476562 175.527344 C 206.550781 175.527344 204.078125 173.585938 203.28125 170.925781 L 201.167969 170.925781 L 201.167969 204.0625 L 203.28125 204.0625 C 204.078125 201.402344 206.550781 199.460938 209.476562 199.460938 C 212.402344 199.460938 214.875 201.402344 215.667969 204.0625 L 217.785156 204.0625 Z M 217.785156 170.925781 " fill-opacity="1" fill-rule="evenodd"/></g><path fill="#ff914d" d="M 219.628906 194.859375 L 219.628906 198.539062 L 215.015625 198.539062 L 215.015625 194.859375 Z M 219.628906 194.859375 " fill-opacity="1" fill-rule="evenodd"/><path fill="#ff914d" d="M 211.320312 194.859375 L 211.320312 198.539062 L 206.707031 198.539062 L 206.707031 194.859375 Z M 211.320312 194.859375 " fill-opacity="1" fill-rule="evenodd"/><path fill="#ff914d" d="M 203.015625 194.859375 L 203.015625 198.539062 L 199.324219 198.539062 L 199.324219 194.859375 Z M 203.015625 194.859375 " fill-opacity="1" fill-rule="evenodd"/><path fill="#ff914d" d="M 216.859375 184.734375 C 216.859375 185.332031 216.570312 185.890625 216.082031 186.234375 L 213.785156 187.855469 L 212.949219 190.53125 C 212.773438 191.101562 212.328125 191.550781 211.757812 191.738281 C 211.1875 191.921875 210.5625 191.820312 210.085938 191.460938 L 207.828125 189.785156 L 205.019531 189.820312 C 204.417969 189.828125 203.855469 189.542969 203.5 189.0625 C 203.148438 188.578125 203.054688 187.953125 203.246094 187.390625 L 204.148438 184.734375 L 203.246094 182.078125 C 203.054688 181.511719 203.148438 180.886719 203.5 180.40625 C 203.855469 179.921875 204.417969 179.640625 205.019531 179.644531 L 207.828125 179.679688 L 210.085938 178.003906 C 210.5625 177.648438 211.1875 177.546875 211.757812 177.730469 C 212.328125 177.914062 212.773438 178.363281 212.949219 178.933594 L 213.785156 181.609375 L 216.082031 183.230469 C 216.570312 183.574219 216.859375 184.136719 216.859375 184.734375 Z M 211.820312 184.734375 L 211.140625 184.253906 C 210.8125 184.023438 210.566406 183.6875 210.445312 183.300781 L 210.199219 182.511719 L 209.535156 183.003906 C 209.210938 183.246094 208.816406 183.375 208.410156 183.371094 L 207.582031 183.359375 L 207.847656 184.144531 C 207.976562 184.527344 207.976562 184.941406 207.847656 185.324219 L 207.582031 186.105469 L 208.410156 186.097656 C 208.816406 186.089844 209.210938 186.21875 209.535156 186.460938 L 210.199219 186.957031 L 210.445312 186.164062 C 210.566406 185.78125 210.8125 185.445312 211.140625 185.210938 Z M 211.820312 184.734375 " fill-opacity="1" fill-rule="evenodd"/><g fill="#ff914d" fill-opacity="1"><g transform="translate(221.48088, 198.756088)"><g><path d="M 23.433594 -15.777344 L 23.433594 -18.597656 L 3.84375 -18.597656 L 3.84375 0 L 23.433594 0 L 23.433594 -2.820312 L 7.003906 -2.820312 L 7.003906 -7.65625 L 21.511719 -7.65625 L 21.511719 -10.476562 L 7.003906 -10.476562 L 7.003906 -15.777344 Z M 23.433594 -15.777344 "/></g></g></g><g fill="#ff914d" fill-opacity="1"><g transform="translate(246.794763, 198.756088)"><g><path d="M 25.851562 -13.171875 L 25.851562 -13.515625 C 25.851562 -16.863281 23.679688 -18.597656 20.054688 -18.597656 L 3.84375 -18.597656 L 3.84375 0 L 7.222656 0 L 7.222656 -7.191406 L 18.753906 -7.191406 C 21.882812 -7.191406 21.882812 -5.269531 21.882812 -3.8125 L 21.882812 -1.734375 C 21.882812 -1.179688 21.914062 -0.558594 22.007812 0 L 25.632812 0 C 25.539062 -0.558594 25.476562 -1.179688 25.476562 -1.859375 L 25.476562 -4.058594 C 25.476562 -5.980469 24.703125 -7.65625 22.90625 -8.648438 C 24.671875 -9.207031 25.851562 -10.476562 25.851562 -13.171875 Z M 7.222656 -10.507812 L 7.222656 -15.496094 L 20.054688 -15.496094 C 22.160156 -15.496094 22.625 -14.414062 22.625 -13.515625 L 22.625 -13.171875 C 22.625 -11.714844 21.820312 -10.507812 20.054688 -10.507812 Z M 7.222656 -10.507812 "/></g></g></g><g fill="#ff914d" fill-opacity="1"><g transform="translate(274.959159, 198.756088)"><g><path d="M 15.0625 0.308594 C 24.796875 0.308594 27.648438 -4.339844 27.648438 -8.742188 L 27.648438 -10.105469 C 27.648438 -14.753906 24.484375 -19 15.0625 -19 C 5.484375 -19 2.480469 -14.566406 2.480469 -9.980469 L 2.480469 -8.617188 C 2.480469 -4.121094 5.484375 0.308594 15.0625 0.308594 Z M 15.0625 -2.789062 C 8.335938 -2.789062 5.703125 -5.332031 5.703125 -8.617188 L 5.703125 -9.980469 C 5.703125 -13.359375 8.335938 -15.902344 15.0625 -15.902344 C 21.574219 -15.902344 24.425781 -13.109375 24.425781 -9.671875 L 24.425781 -8.308594 C 24.425781 -5.175781 21.976562 -2.789062 15.0625 -2.789062 Z M 15.0625 -2.789062 "/></g></g></g><g fill="#000000" fill-opacity="1"><g transform="translate(56.478658, 198.769506)"><g><path d="M 21.121094 -18.554688 L -0.09375 -18.554688 L -0.09375 -15.523438 L 8.9375 -15.523438 L 8.9375 0 L 12.09375 0 L 12.09375 -15.523438 L 21.121094 -15.523438 Z M 21.121094 -18.554688 "/></g></g></g><g fill="#000000" fill-opacity="1"><g transform="translate(77.474666, 198.769506)"><g><path d="M 3.835938 0 L 6.988281 0 L 6.988281 -18.554688 L 3.835938 -18.554688 Z M 3.835938 0 "/></g></g></g><g fill="#000000" fill-opacity="1"><g transform="translate(88.29735, 198.769506)"><g><path d="M 15.03125 0.308594 C 23.410156 0.308594 26.78125 -3.03125 27.398438 -6.957031 L 23.96875 -6.957031 C 23.285156 -4.546875 20.75 -2.785156 15.03125 -2.785156 C 8.320312 -2.785156 5.691406 -5.320312 5.691406 -9 L 5.691406 -9.648438 C 5.691406 -13.328125 8.320312 -15.863281 15.03125 -15.863281 C 20.164062 -15.863281 23.628906 -14.039062 24 -11.875 L 27.429688 -11.875 C 27.152344 -15.585938 22.824219 -18.957031 15.03125 -18.957031 C 5.472656 -18.957031 2.472656 -14.535156 2.472656 -9.648438 L 2.472656 -9 C 2.472656 -4.113281 5.472656 0.308594 15.03125 0.308594 Z M 15.03125 0.308594 "/></g></g></g><g fill="#000000" fill-opacity="1"><g transform="translate(118.291643, 198.769506)"><g><path d="M 25.421875 -18.554688 L 20.9375 -18.554688 L 12 -10.886719 L 6.988281 -10.886719 L 6.988281 -18.554688 L 3.835938 -18.554688 L 3.835938 0 L 6.988281 0 L 6.988281 -7.792969 L 11.472656 -7.792969 L 20.566406 0 L 25.203125 0 L 14.875 -9.277344 Z M 25.421875 -18.554688 "/></g></g></g><g fill="#000000" fill-opacity="1"><g transform="translate(144.111473, 198.769506)"><g><path d="M 23.378906 -15.742188 L 23.378906 -18.554688 L 3.835938 -18.554688 L 3.835938 0 L 23.378906 0 L 23.378906 -2.8125 L 6.988281 -2.8125 L 6.988281 -7.636719 L 21.460938 -7.636719 L 21.460938 -10.453125 L 6.988281 -10.453125 L 6.988281 -15.742188 Z M 23.378906 -15.742188 "/></g></g></g><g fill="#000000" fill-opacity="1"><g transform="translate(169.374701, 198.769506)"><g><path d="M 21.121094 -18.554688 L -0.09375 -18.554688 L -0.09375 -15.523438 L 8.9375 -15.523438 L 8.9375 0 L 12.09375 0 L 12.09375 -15.523438 L 21.121094 -15.523438 Z M 21.121094 -18.554688 "/></g></g></g></svg>